<?xml version="1.0" encoding="UTF-8"?>
<!DOCTYPE svg PUBLIC "-//W3C//DTD SVG 1.1//EN" "http://www.w3.org/Graphics/SVG/1.1/DTD/svg11.dtd">
<svg xmlns="http://www.w3.org/2000/svg" version="1.1" width="530px" height="530px" style="shape-rendering:geometricPrecision; text-rendering:geometricPrecision; image-rendering:optimizeQuality; fill-rule:evenodd; clip-rule:evenodd" xmlns:xlink="http://www.w3.org/1999/xlink">
<g><path style="opacity:1" fill="#efe1db" d="M 161.5,36.5 C 165.846,36.3343 170.179,36.501 174.5,37C 175.667,38.1667 176.833,39.3333 178,40.5C 181.224,57.3974 183.224,74.3974 184,91.5C 182.5,93 181,94.5 179.5,96C 169.957,98.4252 160.291,99.4252 150.5,99C 149,97.5 147.5,96 146,94.5C 142.051,80.656 137.718,66.9893 133,53.5C 131.466,48.1602 132.633,43.6602 136.5,40C 145.033,39.2272 153.366,38.0606 161.5,36.5 Z"/></g>
<g><path style="opacity:1" fill="#f6b76a" d="M 165.5,44.5 C 167.167,44.5 168.833,44.5 170.5,44.5C 172.48,58.8539 174.313,73.1872 176,87.5C 169.592,89.0971 163.092,90.4305 156.5,91.5C 155.558,91.3918 154.725,91.0585 154,90.5C 149.983,76.2854 145.483,62.2854 140.5,48.5C 148.984,47.236 157.317,45.9026 165.5,44.5 Z"/></g>
<g><path style="opacity:1" fill="#efe1db" d="M 102.5,55.5 C 107.849,54.4614 112.349,55.7947 116,59.5C 124.667,71.5 133.333,83.5 142,95.5C 144.4,101.236 143.733,106.569 140,111.5C 133.945,119.222 128.278,127.222 123,135.5C 121.316,137.351 119.483,139.018 117.5,140.5C 115.157,150.203 112.657,159.87 110,169.5C 107.935,172.876 104.935,174.209 101,173.5C 90.1323,171.211 79.6323,167.711 69.5,163C 61.9355,160.37 59.4355,155.203 62,147.5C 65.3333,140.833 68.6667,134.167 72,127.5C 75.3566,123.105 79.8566,121.272 85.5,122C 75.4008,115.2 65.5675,108.034 56,100.5C 54.2817,94.8433 55.7817,90.3433 60.5,87C 74.9666,77.0213 88.9666,66.5213 102.5,55.5 Z"/></g>
<g><path style="opacity:1" fill="#f6b76a" d="M 106.5,63.5 C 116.733,75.7491 126.4,88.5824 135.5,102C 128.21,112.079 121.044,122.246 114,132.5C 97.6086,119.721 80.7753,107.554 63.5,96C 78.2603,85.6321 92.5936,74.7988 106.5,63.5 Z"/></g>
<g><path style="opacity:0.984" fill="#edddd8" d="M 341.5,78.5 C 361.458,77.3202 381.124,79.1536 400.5,84C 405.623,85.8013 405.623,87.8013 400.5,90C 374.152,96.8407 350.152,108.507 328.5,125C 349.422,117.459 371.089,114.125 393.5,115C 398.083,115.562 402.417,116.895 406.5,119C 408.527,120.396 408.86,122.062 407.5,124C 396.289,129.852 384.956,135.519 373.5,141C 386.95,144.225 399.283,149.892 410.5,158C 419.678,166.011 428.344,174.511 436.5,183.5C 437.73,180.415 438.73,177.249 439.5,174C 434.791,168.093 429.957,162.259 425,156.5C 424.333,153.5 424.333,150.5 425,147.5C 428.889,140.89 433.389,134.723 438.5,129C 441.5,128.333 444.5,128.333 447.5,129C 455.636,138.137 464.136,146.97 473,155.5C 474.262,159.909 473.428,163.743 470.5,167C 476.926,167.591 479.926,171.091 479.5,177.5C 478.995,184.208 478.162,190.874 477,197.5C 472.945,202.316 467.778,203.816 461.5,202C 456.416,201.15 451.416,199.984 446.5,198.5C 446.167,198.833 445.833,199.167 445.5,199.5C 447.431,204.127 449.265,208.794 451,213.5C 462.758,214.322 474.591,214.822 486.5,215C 489.667,218.167 492.833,221.333 496,224.5C 496.49,225.793 496.657,227.127 496.5,228.5C 497.873,228.343 499.207,228.51 500.5,229C 503.333,231.833 506.167,234.667 509,237.5C 510.376,274.825 510.709,312.158 510,349.5C 508.207,352.295 506.04,354.795 503.5,357C 489.185,358.063 474.852,358.563 460.5,358.5C 455.835,380.49 447.335,400.823 435,419.5C 424.5,431.333 413.333,442.5 401.5,453C 387.404,461.881 372.404,468.881 356.5,474C 337.63,479.468 318.63,484.468 299.5,489C 274.002,493.274 248.335,494.94 222.5,494C 187.018,487.255 155.018,472.922 126.5,451C 117.962,442.131 109.796,432.964 102,423.5C 98.2694,416.797 97.6028,409.797 100,402.5C 112.553,378.947 130.72,361.113 154.5,349C 161.329,346.39 168.329,344.39 175.5,343C 172.001,339.917 168.001,337.917 163.5,337C 161.093,334.715 158.593,332.549 156,330.5C 155.667,332.5 155.333,334.5 155,336.5C 152.167,339.333 149.333,342.167 146.5,345C 145.207,345.49 143.873,345.657 142.5,345.5C 141.265,350.445 138.598,354.612 134.5,358C 100.833,358.667 67.1667,358.667 33.5,358C 30.628,355.463 28.128,352.63 26,349.5C 25.3333,308.167 25.3333,266.833 26,225.5C 29.1667,222.333 32.3333,219.167 35.5,216C 63.5,215.667 91.5,215.333 119.5,215C 117.618,206.63 117.118,198.13 118,189.5C 120.746,185.698 124.413,183.365 129,182.5C 131.725,176.214 135.558,170.714 140.5,166C 141.793,165.51 143.127,165.343 144.5,165.5C 144.203,161.089 145.369,157.089 148,153.5C 151.833,149.667 155.667,145.833 159.5,142C 156.711,134.084 159.378,128.75 167.5,126C 171.833,125.667 176.167,125.333 180.5,125C 205.148,115.211 229.148,116.544 252.5,129C 254.5,130.667 256.5,132.333 258.5,134C 264.131,135.654 269.298,138.154 274,141.5C 279.5,119.994 291.334,102.828 309.5,90C 319.349,83.561 330.016,79.7277 341.5,78.5 Z M 261.5,324.5 C 262.329,332.657 262.829,340.99 263,349.5C 264.715,351.759 266.548,353.926 268.5,356C 255.168,354.752 242.168,351.752 229.5,347C 242.52,342.808 253.187,335.308 261.5,324.5 Z"/></g>
<g><path style="opacity:1" fill="#481b15" d="M 482.5,223.5 C 452.426,223.175 422.426,223.508 392.5,224.5C 396.373,222.57 400.706,221.903 405.5,222.5C 418.85,222.833 432.183,222.499 445.5,221.5C 445.154,220.304 444.654,220.304 444,221.5C 441.101,214.272 437.935,207.272 434.5,200.5C 434.443,199.391 434.11,198.391 433.5,197.5C 428.925,189.025 422.925,181.691 415.5,175.5C 410.692,170.024 405.026,165.69 398.5,162.5C 393.527,158.515 387.86,155.848 381.5,154.5C 376.503,152.251 371.17,150.917 365.5,150.5C 360.962,149.322 356.295,148.322 351.5,147.5C 360.885,136.964 372.218,129.131 385.5,124C 354.499,124.556 326.499,133.889 301.5,152C 298.333,155.167 295.167,158.333 292,161.5C 291.517,162.448 291.351,163.448 291.5,164.5C 290.086,162.082 288.086,160.415 285.5,159.5C 280.561,160.648 277.061,158.981 275,154.5C 272.886,157.121 270.386,159.121 267.5,160.5C 267.167,160.5 266.833,160.5 266.5,160.5C 265.5,159.167 264.5,157.833 263.5,156.5C 270.792,151.448 270.125,148.448 261.5,147.5C 261.611,146.883 261.944,146.383 262.5,146C 256.92,144.878 252.253,142.212 248.5,138C 227.844,125.667 206.51,124.334 184.5,134C 179.981,134.175 175.647,134.675 171.5,135.5C 170.078,135.709 168.745,136.209 167.5,137C 171.251,137.582 172.918,139.749 172.5,143.5C 170.596,143.738 169.262,144.738 168.5,146.5C 161.601,151.391 156.601,157.725 153.5,165.5C 154.617,169.734 156.284,173.734 158.5,177.5C 158.167,178.167 157.833,178.833 157.5,179.5C 153.061,178.52 148.895,176.854 145,174.5C 141.711,180.082 138.711,185.748 136,191.5C 132.915,192.432 129.748,193.099 126.5,193.5C 126.657,201.93 127.657,210.263 129.5,218.5C 129.278,220.055 128.611,221.389 127.5,222.5C 128.243,223.182 128.909,223.849 129.5,224.5C 99.0931,224.175 68.7598,224.508 38.5,225.5C 67.1551,223.838 96.1551,222.838 125.5,222.5C 126.383,221.452 127.05,220.285 127.5,219C 126.213,211.827 124.88,204.661 123.5,197.5C 123.577,195.701 124.077,194.034 125,192.5C 127.861,191.079 130.861,190.079 134,189.5C 136.735,183.762 139.901,178.262 143.5,173C 147.5,174 151.5,175 155.5,176C 150.513,169.596 150.346,163.096 155,156.5C 160.2,151.635 165.033,146.468 169.5,141C 164.012,137.766 164.345,135.1 170.5,133C 184.696,130.381 198.863,127.547 213,124.5C 229.617,126.034 244.451,131.868 257.5,142C 261.71,143.222 265.71,144.888 269.5,147C 271.36,151.151 270.36,154.484 266.5,157C 269.565,156.215 272.398,154.715 275,152.5C 276.714,153.076 277.881,154.243 278.5,156C 279.448,156.483 280.448,156.649 281.5,156.5C 280.086,150.138 280.252,143.804 282,137.5C 293.725,106.105 316.225,88.6049 349.5,85C 361.155,85.4418 372.821,86.1084 384.5,87C 343.795,99.3726 312.629,123.539 291,159.5C 307.584,142.785 327.417,131.619 350.5,126C 360.689,124.296 370.855,122.462 381,120.5C 386.143,121.203 391.309,121.703 396.5,122C 381.031,126.403 367.697,134.403 356.5,146C 387.782,149.215 412.616,163.381 431,188.5C 437.043,199.252 442.543,210.252 447.5,221.5C 459.326,222.167 470.993,222.833 482.5,223.5 Z"/></g>
<g><path style="opacity:1" fill="#d64a37" d="M 285.5,159.5 C 281.712,150.858 281.878,142.192 286,133.5C 303.641,96.5944 332.807,81.7611 373.5,89C 336.602,101.903 308.102,125.07 288,158.5C 287.329,159.252 286.496,159.586 285.5,159.5 Z"/></g>
<g><path style="opacity:1" fill="#d64a37" d="M 351.5,147.5 C 345.667,150.249 340.001,153.249 334.5,156.5C 324.236,160.148 313.903,163.148 303.5,165.5C 299.4,165.763 295.4,165.43 291.5,164.5C 291.351,163.448 291.517,162.448 292,161.5C 295.167,158.333 298.333,155.167 301.5,152C 326.499,133.889 354.499,124.556 385.5,124C 372.218,129.131 360.885,136.964 351.5,147.5 Z"/></g>
<g><path style="opacity:1" fill="#d39b75" d="M 261.5,147.5 C 258.916,147.569 256.916,148.735 255.5,151C 258.047,153.054 260.714,154.887 263.5,156.5C 264.5,157.833 265.5,159.167 266.5,160.5C 259.206,157.532 251.539,156.699 243.5,158C 239.174,159.248 235.341,161.414 232,164.5C 231.333,167.167 231.333,169.833 232,172.5C 239.204,179.054 247.704,181.22 257.5,179C 261.994,177.714 265.994,175.547 269.5,172.5C 270.05,170.343 270.717,168.343 271.5,166.5C 271.833,167.833 272.167,169.167 272.5,170.5C 271.32,174.504 269.82,178.504 268,182.5C 262.854,186.311 257.688,189.978 252.5,193.5C 244.327,196.127 235.994,198.294 227.5,200C 221.833,200.667 216.167,200.667 210.5,200C 192.532,193.846 175.199,186.346 158.5,177.5C 156.284,173.734 154.617,169.734 153.5,165.5C 163.12,171.487 171.953,170.487 180,162.5C 182.072,152.757 178.239,147.424 168.5,146.5C 169.262,144.738 170.596,143.738 172.5,143.5C 180.779,140.068 180.445,137.401 171.5,135.5C 175.647,134.675 179.981,134.175 184.5,134C 206.51,124.334 227.844,125.667 248.5,138C 252.253,142.212 256.92,144.878 262.5,146C 261.944,146.383 261.611,146.883 261.5,147.5 Z"/></g>
<g><path style="opacity:1" fill="#f6b76a" d="M 80.5,130.5 C 90.1841,133.51 99.5174,137.343 108.5,142C 106.112,149.718 104.112,157.551 102.5,165.5C 91.1062,162.147 80.1062,157.814 69.5,152.5C 73.1799,145.14 76.8466,137.807 80.5,130.5 Z"/></g>
<g><path style="opacity:1" fill="#9a5134" d="M 171.5,135.5 C 180.445,137.401 180.779,140.068 172.5,143.5C 172.918,139.749 171.251,137.582 167.5,137C 168.745,136.209 170.078,135.709 171.5,135.5 Z"/></g>
<g><path style="opacity:1" fill="#f6b76a" d="M 442.5,136.5 C 449.857,144.36 457.524,152.194 465.5,160C 458.567,161.94 451.734,164.106 445,166.5C 440.833,161.667 436.667,156.833 432.5,152C 435.969,146.89 439.302,141.723 442.5,136.5 Z"/></g>
<g><path style="opacity:1" fill="#441811" d="M 183.5,143.5 C 185.14,144.32 186.807,145.153 188.5,146C 189.451,146.718 189.617,147.551 189,148.5C 186.913,147.206 184.746,146.039 182.5,145C 183.056,144.617 183.389,144.117 183.5,143.5 Z"/></g>
<g><path style="opacity:1" fill="#da9571" d="M 168.5,146.5 C 178.239,147.424 182.072,152.757 180,162.5C 171.953,170.487 163.12,171.487 153.5,165.5C 156.601,157.725 161.601,151.391 168.5,146.5 Z"/></g>
<g><path style="opacity:1" fill="#8a472d" d="M 261.5,147.5 C 270.125,148.448 270.792,151.448 263.5,156.5C 260.714,154.887 258.047,153.054 255.5,151C 256.916,148.735 258.916,147.569 261.5,147.5 Z"/></g>
<g><path style="opacity:1" fill="#995033" d="M 351.5,147.5 C 356.295,148.322 360.962,149.322 365.5,150.5C 353.896,159.917 341.562,168.417 328.5,176C 321.727,177.369 315.227,179.536 309,182.5C 304.384,181.128 299.884,179.462 295.5,177.5C 294.833,180.642 294.166,183.642 293.5,186.5C 293.335,182.818 293.501,179.152 294,175.5C 294.308,174.692 294.808,174.025 295.5,173.5C 309.26,171.287 321.927,166.287 333.5,158.5C 334.298,158.043 334.631,157.376 334.5,156.5C 340.001,153.249 345.667,150.249 351.5,147.5 Z"/></g>
<g><path style="opacity:1" fill="#c58965" d="M 365.5,150.5 C 371.17,150.917 376.503,152.251 381.5,154.5C 354.502,166.985 331.002,184.318 311,206.5C 307.293,212.027 303.126,217.027 298.5,221.5C 295.955,216.318 293.955,210.984 292.5,205.5C 292.5,199.167 292.5,192.833 292.5,186.5C 292.833,186.5 293.167,186.5 293.5,186.5C 294.166,183.642 294.833,180.642 295.5,177.5C 299.884,179.462 304.384,181.128 309,182.5C 315.227,179.536 321.727,177.369 328.5,176C 341.562,168.417 353.896,159.917 365.5,150.5 Z"/></g>
<g><path style="opacity:1" fill="#441811" d="M 229.5,153.5 C 234.179,153.334 238.845,153.501 243.5,154C 238.618,155.555 233.618,155.888 228.5,155C 229.056,154.617 229.389,154.117 229.5,153.5 Z"/></g>
<g><path style="opacity:1" fill="#c18460" d="M 381.5,154.5 C 387.86,155.848 393.527,158.515 398.5,162.5C 364.943,174.597 337.609,194.931 316.5,223.5C 310.167,223.5 303.833,223.5 297.5,223.5C 297.328,222.508 297.662,221.842 298.5,221.5C 303.126,217.027 307.293,212.027 311,206.5C 331.002,184.318 354.502,166.985 381.5,154.5 Z"/></g>
<g><path style="opacity:1" fill="#441811" d="M 192.5,155.5 C 199.606,154.75 206.273,156.083 212.5,159.5C 208.249,161.362 203.916,163.028 199.5,164.5C 196.553,162.729 193.719,160.729 191,158.5C 190.761,157.212 191.261,156.212 192.5,155.5 Z"/></g>
<g><path style="opacity:1" fill="#da9470" d="M 266.5,160.5 C 266.833,160.5 267.167,160.5 267.5,160.5C 268.167,160.5 268.5,160.833 268.5,161.5C 268.66,163.153 269.326,164.486 270.5,165.5C 271.167,165.5 271.5,165.833 271.5,166.5C 270.717,168.343 270.05,170.343 269.5,172.5C 265.994,175.547 261.994,177.714 257.5,179C 247.704,181.22 239.204,179.054 232,172.5C 231.333,169.833 231.333,167.167 232,164.5C 235.341,161.414 239.174,159.248 243.5,158C 251.539,156.699 259.206,157.532 266.5,160.5 Z"/></g>
<g><path style="opacity:1" fill="#722819" d="M 334.5,156.5 C 334.631,157.376 334.298,158.043 333.5,158.5C 321.927,166.287 309.26,171.287 295.5,173.5C 294.808,174.025 294.308,174.692 294,175.5C 293.501,179.152 293.335,182.818 293.5,186.5C 293.167,186.5 292.833,186.5 292.5,186.5C 292.454,179.809 292.788,173.143 293.5,166.5C 297.042,166.813 300.375,166.479 303.5,165.5C 313.903,163.148 324.236,160.148 334.5,156.5 Z"/></g>
<g><path style="opacity:1" fill="#441811" d="M 268.5,161.5 C 270.104,162.287 270.771,163.62 270.5,165.5C 269.326,164.486 268.66,163.153 268.5,161.5 Z"/></g>
<g><path style="opacity:1" fill="#461812" d="M 291.5,164.5 C 295.4,165.43 299.4,165.763 303.5,165.5C 300.375,166.479 297.042,166.813 293.5,166.5C 292.788,173.143 292.454,179.809 292.5,186.5C 292.5,192.833 292.5,199.167 292.5,205.5C 291.694,204.003 291.028,202.336 290.5,200.5C 291.473,191.22 291.807,181.887 291.5,172.5C 288.833,172.5 286.167,172.5 283.5,172.5C 284.525,176.571 284.192,180.238 282.5,183.5C 282.5,182.833 282.5,182.167 282.5,181.5C 282.81,178.287 282.477,175.287 281.5,172.5C 284.045,171.496 287.379,171.163 291.5,171.5C 291.5,169.167 291.5,166.833 291.5,164.5 Z"/></g>
<g><path style="opacity:1" fill="#541e17" d="M 272.5,170.5 C 272.167,169.167 271.833,167.833 271.5,166.5C 273.867,164.928 275.867,165.261 277.5,167.5C 277.333,167.833 277.167,168.167 277,168.5C 276.311,167.643 275.478,166.977 274.5,166.5C 273.828,167.949 273.161,169.282 272.5,170.5 Z"/></g>
<g><path style="opacity:1" fill="#d14735" d="M 285.5,159.5 C 288.086,160.415 290.086,162.082 291.5,164.5C 291.5,166.833 291.5,169.167 291.5,171.5C 287.379,171.163 284.045,171.496 281.5,172.5C 276.273,178.733 271.607,185.566 267.5,193C 267.63,194.059 268.13,194.892 269,195.5C 273.676,190.991 278.176,186.324 282.5,181.5C 282.5,182.167 282.5,182.833 282.5,183.5C 281.076,185.515 280.41,187.848 280.5,190.5C 278.992,192.181 277.992,194.181 277.5,196.5C 275.539,200.982 273.872,205.649 272.5,210.5C 269.529,213.808 266.529,217.141 263.5,220.5C 261.228,221.441 259.228,222.774 257.5,224.5C 253.297,224.924 249.297,224.424 245.5,223C 248.633,217.901 252.133,213.068 256,208.5C 256.563,207.275 256.23,206.275 255,205.5C 244.771,210.364 234.604,215.364 224.5,220.5C 219.003,219.882 213.503,219.215 208,218.5C 204.194,219.871 200.694,219.538 197.5,217.5C 197.16,215.321 196.16,213.488 194.5,212C 191.857,211.274 189.524,210.107 187.5,208.5C 186.662,208.158 186.328,207.492 186.5,206.5C 186.068,205.29 185.401,204.29 184.5,203.5C 184.262,201.596 183.262,200.262 181.5,199.5C 179.847,199.34 178.514,198.674 177.5,197.5C 176.081,196.549 174.415,196.216 172.5,196.5C 169.482,196.704 166.482,197.037 163.5,197.5C 162.508,197.328 161.842,197.662 161.5,198.5C 160.167,200.5 158.5,202.167 156.5,203.5C 155.5,203.833 154.833,204.5 154.5,205.5C 154.573,207.027 153.906,208.027 152.5,208.5C 151.849,209.091 151.182,209.757 150.5,210.5C 147.906,209.408 145.739,207.741 144,205.5C 144.516,211.115 144.516,216.782 144,222.5C 142.843,226.822 140.676,230.489 137.5,233.5C 136.609,234.11 135.609,234.443 134.5,234.5C 135.691,229.531 134.024,226.197 129.5,224.5C 128.909,223.849 128.243,223.182 127.5,222.5C 128.611,221.389 129.278,220.055 129.5,218.5C 127.657,210.263 126.657,201.93 126.5,193.5C 129.748,193.099 132.915,192.432 136,191.5C 138.711,185.748 141.711,180.082 145,174.5C 148.895,176.854 153.061,178.52 157.5,179.5C 157.423,180.75 156.756,181.583 155.5,182C 161.59,184.59 167.256,187.257 172.5,190C 187.531,195.188 202.531,200.354 217.5,205.5C 220.846,206.271 224.346,206.938 228,207.5C 229.301,207.361 230.134,206.695 230.5,205.5C 238.482,202.512 245.815,198.512 252.5,193.5C 257.688,189.978 262.854,186.311 268,182.5C 269.82,178.504 271.32,174.504 272.5,170.5C 273.161,169.282 273.828,167.949 274.5,166.5C 275.478,166.977 276.311,167.643 277,168.5C 277.167,168.167 277.333,167.833 277.5,167.5C 275.867,165.261 273.867,164.928 271.5,166.5C 271.5,165.833 271.167,165.5 270.5,165.5C 270.771,163.62 270.104,162.287 268.5,161.5C 268.5,160.833 268.167,160.5 267.5,160.5C 270.386,159.121 272.886,157.121 275,154.5C 277.061,158.981 280.561,160.648 285.5,159.5 Z"/></g>
<g><path style="opacity:1" fill="#ba7a58" d="M 398.5,162.5 C 405.026,165.69 410.692,170.024 415.5,175.5C 386.565,184.781 362.232,200.781 342.5,223.5C 333.833,223.5 325.167,223.5 316.5,223.5C 337.609,194.931 364.943,174.597 398.5,162.5 Z"/></g>
<g><path style="opacity:1" fill="#77170e" d="M 292.5,205.5 C 293.955,210.984 295.955,216.318 298.5,221.5C 297.662,221.842 297.328,222.508 297.5,223.5C 295.833,223.5 294.167,223.5 292.5,223.5C 290.576,220.157 289.409,216.491 289,212.5C 288.399,206.16 287.733,199.826 287,193.5C 282.255,201.814 280.088,210.814 280.5,220.5C 279.833,218.5 279.167,216.5 278.5,214.5C 276.629,213.233 274.796,213.233 273,214.5C 272.51,213.207 272.343,211.873 272.5,210.5C 273.872,205.649 275.539,200.982 277.5,196.5C 278.323,199.977 278.823,203.644 279,207.5C 279.373,201.811 279.873,196.145 280.5,190.5C 280.41,187.848 281.076,185.515 282.5,183.5C 284.192,180.238 284.525,176.571 283.5,172.5C 286.167,172.5 288.833,172.5 291.5,172.5C 291.807,181.887 291.473,191.22 290.5,200.5C 291.028,202.336 291.694,204.003 292.5,205.5 Z"/></g>
<g><path style="opacity:1" fill="#73160e" d="M 281.5,172.5 C 282.477,175.287 282.81,178.287 282.5,181.5C 278.176,186.324 273.676,190.991 269,195.5C 268.13,194.892 267.63,194.059 267.5,193C 271.607,185.566 276.273,178.733 281.5,172.5 Z"/></g>
<g><path style="opacity:1" fill="#f6b76a" d="M 448.5,174.5 C 456.08,175.466 463.747,175.799 471.5,175.5C 470.832,181.513 469.998,187.513 469,193.5C 468.439,194.022 467.772,194.355 467,194.5C 459.247,193.187 451.747,191.187 444.5,188.5C 445.84,183.804 447.173,179.138 448.5,174.5 Z"/></g>
<g><path style="opacity:1" fill="#b16f4e" d="M 415.5,175.5 C 422.925,181.691 428.925,189.025 433.5,197.5C 409.659,202.751 388.993,213.751 371.5,230.5C 371.288,227.288 369.621,225.288 366.5,224.5C 358.684,223.508 350.684,223.174 342.5,223.5C 362.232,200.781 386.565,184.781 415.5,175.5 Z"/></g>
<g><path style="opacity:1" fill="#441811" d="M 280.5,190.5 C 279.873,196.145 279.373,201.811 279,207.5C 278.823,203.644 278.323,199.977 277.5,196.5C 277.992,194.181 278.992,192.181 280.5,190.5 Z"/></g>
<g><path style="opacity:1" fill="#441811" d="M 172.5,196.5 C 174.415,196.216 176.081,196.549 177.5,197.5C 175.708,197.366 174.042,197.699 172.5,198.5C 172.5,197.833 172.5,197.167 172.5,196.5 Z"/></g>
<g><path style="opacity:1" fill="#8a472e" d="M 158.5,177.5 C 175.199,186.346 192.532,193.846 210.5,200C 216.167,200.667 221.833,200.667 227.5,200C 235.994,198.294 244.327,196.127 252.5,193.5C 245.815,198.512 238.482,202.512 230.5,205.5C 226.347,205.736 222.013,205.736 217.5,205.5C 202.531,200.354 187.531,195.188 172.5,190C 167.256,187.257 161.59,184.59 155.5,182C 156.756,181.583 157.423,180.75 157.5,179.5C 157.833,178.833 158.167,178.167 158.5,177.5 Z"/></g>
<g><path style="opacity:1" fill="#441811" d="M 161.5,198.5 C 161.842,197.662 162.508,197.328 163.5,197.5C 163.737,198.791 163.404,199.791 162.5,200.5C 162.672,199.508 162.338,198.842 161.5,198.5 Z"/></g>
<g><path style="opacity:1" fill="#aa6645" d="M 433.5,197.5 C 434.11,198.391 434.443,199.391 434.5,200.5C 435.385,207.894 433.052,214.061 427.5,219C 420.114,220.698 412.78,221.865 405.5,222.5C 400.706,221.903 396.373,222.57 392.5,224.5C 390.833,225.5 389.5,226.833 388.5,228.5C 387.504,243.991 387.17,259.658 387.5,275.5C 386.5,274.833 385.5,274.167 384.5,273.5C 384.828,262.654 384.494,251.987 383.5,241.5C 380.661,237.437 376.661,235.77 371.5,236.5C 371.5,234.5 371.5,232.5 371.5,230.5C 388.993,213.751 409.659,202.751 433.5,197.5 Z"/></g>
<g><path style="opacity:1" fill="#441811" d="M 181.5,199.5 C 183.262,200.262 184.262,201.596 184.5,203.5C 183.118,202.199 181.452,201.366 179.5,201C 180.416,200.722 181.082,200.222 181.5,199.5 Z"/></g>
<g><path style="opacity:1" fill="#9a5133" d="M 434.5,200.5 C 437.935,207.272 441.101,214.272 444,221.5C 444.654,220.304 445.154,220.304 445.5,221.5C 432.183,222.499 418.85,222.833 405.5,222.5C 412.78,221.865 420.114,220.698 427.5,219C 433.052,214.061 435.385,207.894 434.5,200.5 Z"/></g>
<g><path style="opacity:1" fill="#e1a15e" d="M 172.5,196.5 C 172.5,197.167 172.5,197.833 172.5,198.5C 174.042,197.699 175.708,197.366 177.5,197.5C 178.514,198.674 179.847,199.34 181.5,199.5C 181.082,200.222 180.416,200.722 179.5,201C 181.452,201.366 183.118,202.199 184.5,203.5C 182.241,205.204 182.907,206.204 186.5,206.5C 186.328,207.492 186.662,208.158 187.5,208.5C 187.218,209.778 186.551,210.778 185.5,211.5C 183.046,212.227 180.713,213.227 178.5,214.5C 177.989,212.805 177.322,211.139 176.5,209.5C 174.866,209.032 173.7,208.032 173,206.5C 171.951,208.107 170.451,208.773 168.5,208.5C 168.66,206.801 168.494,205.134 168,203.5C 167.8,205.32 166.966,206.653 165.5,207.5C 163.589,207.426 162.422,206.426 162,204.5C 161.235,202.934 161.402,201.601 162.5,200.5C 163.404,199.791 163.737,198.791 163.5,197.5C 166.482,197.037 169.482,196.704 172.5,196.5 Z"/></g>
<g><path style="opacity:1" fill="#441811" d="M 172.5,198.5 C 172.217,199.289 171.717,199.956 171,200.5C 170.472,199.184 170.972,198.517 172.5,198.5 Z"/></g>
<g><path style="opacity:1" fill="#441811" d="M 156.5,203.5 C 156.664,206.187 156.497,208.854 156,211.5C 155.809,209.292 155.309,207.292 154.5,205.5C 154.833,204.5 155.5,203.833 156.5,203.5 Z"/></g>
<g><path style="opacity:1" fill="#441811" d="M 184.5,203.5 C 185.401,204.29 186.068,205.29 186.5,206.5C 182.907,206.204 182.241,205.204 184.5,203.5 Z"/></g>
<g><path style="opacity:1" fill="#441811" d="M 217.5,205.5 C 222.013,205.736 226.347,205.736 230.5,205.5C 230.134,206.695 229.301,207.361 228,207.5C 224.346,206.938 220.846,206.271 217.5,205.5 Z"/></g>
<g><path style="opacity:1" fill="#edad65" d="M 161.5,198.5 C 162.338,198.842 162.672,199.508 162.5,200.5C 161.402,201.601 161.235,202.934 162,204.5C 162.422,206.426 163.589,207.426 165.5,207.5C 162.528,210.916 160.194,214.25 158.5,217.5C 157.271,218.281 155.938,218.781 154.5,219C 156.686,219.604 156.852,220.77 155,222.5C 153.989,223.337 152.822,223.67 151.5,223.5C 149.919,221.858 149.253,219.858 149.5,217.5C 151.074,215.898 151.741,213.898 151.5,211.5C 152.404,210.791 152.737,209.791 152.5,208.5C 153.906,208.027 154.573,207.027 154.5,205.5C 155.309,207.292 155.809,209.292 156,211.5C 156.497,208.854 156.664,206.187 156.5,203.5C 158.5,202.167 160.167,200.5 161.5,198.5 Z"/></g>
<g><path style="opacity:1" fill="#9b2718" d="M 152.5,208.5 C 152.737,209.791 152.404,210.791 151.5,211.5C 149.926,213.102 149.259,215.102 149.5,217.5C 149.253,219.858 149.919,221.858 151.5,223.5C 156.03,227.365 160.53,227.365 165,223.5C 165.303,225.888 166.137,228.055 167.5,230C 164.869,231.327 162.202,232.66 159.5,234C 152.131,234.726 144.798,234.559 137.5,233.5C 140.676,230.489 142.843,226.822 144,222.5C 144.516,216.782 144.516,211.115 144,205.5C 145.739,207.741 147.906,209.408 150.5,210.5C 151.182,209.757 151.849,209.091 152.5,208.5 Z"/></g>
<g><path style="opacity:1" fill="#76180d" d="M 178.5,214.5 C 178.5,214.833 178.5,215.167 178.5,215.5C 177.504,215.414 176.671,215.748 176,216.5C 174.953,218.762 173.787,220.929 172.5,223C 173.609,225.047 174.276,227.213 174.5,229.5C 160.407,238.323 151.74,250.99 148.5,267.5C 147.833,258.833 147.167,250.167 146.5,241.5C 145.2,240.173 143.867,238.84 142.5,237.5C 139.384,237.08 136.717,236.08 134.5,234.5C 135.609,234.443 136.609,234.11 137.5,233.5C 144.798,234.559 152.131,234.726 159.5,234C 162.202,232.66 164.869,231.327 167.5,230C 166.137,228.055 165.303,225.888 165,223.5C 160.53,227.365 156.03,227.365 151.5,223.5C 152.822,223.67 153.989,223.337 155,222.5C 156.852,220.77 156.686,219.604 154.5,219C 155.938,218.781 157.271,218.281 158.5,217.5C 160.194,214.25 162.528,210.916 165.5,207.5C 166.966,206.653 167.8,205.32 168,203.5C 168.494,205.134 168.66,206.801 168.5,208.5C 170.451,208.773 171.951,208.107 173,206.5C 173.7,208.032 174.866,209.032 176.5,209.5C 177.322,211.139 177.989,212.805 178.5,214.5 Z"/></g>
<g><path style="opacity:1" fill="#441811" d="M 151.5,211.5 C 151.741,213.898 151.074,215.898 149.5,217.5C 149.259,215.102 149.926,213.102 151.5,211.5 Z"/></g>
<g><path style="opacity:1" fill="#492432" d="M 185.5,211.5 C 187.167,211.5 188.833,211.5 190.5,211.5C 190.433,213.401 190.767,215.234 191.5,217C 190.43,218.709 189.097,220.209 187.5,221.5C 191.651,222.431 194.984,221.098 197.5,217.5C 200.694,219.538 204.194,219.871 208,218.5C 213.503,219.215 219.003,219.882 224.5,220.5C 231.876,223.355 238.876,227.022 245.5,231.5C 246.436,232.974 247.77,233.974 249.5,234.5C 252.547,237.545 255.213,240.878 257.5,244.5C 254.698,248.822 251.198,252.822 247,256.5C 246.308,257.437 246.475,258.103 247.5,258.5C 248.27,260.299 249.603,261.632 251.5,262.5C 254.596,260.869 257.43,258.869 260,256.5C 260.49,255.207 260.657,253.873 260.5,252.5C 261.209,251.596 262.209,251.263 263.5,251.5C 263.665,254.85 263.498,258.183 263,261.5C 260.527,268.419 258.36,275.419 256.5,282.5C 258.325,283.571 259.492,282.904 260,280.5C 260.417,281.756 261.25,282.423 262.5,282.5C 267.539,282.451 267.705,283.118 263,284.5C 262.118,293.373 257.951,300.206 250.5,305C 235.321,308.192 219.988,309.192 204.5,308C 200.812,306.487 197.145,304.987 193.5,303.5C 186.894,300.273 181.061,295.939 176,290.5C 172.061,282.955 168.394,275.288 165,267.5C 163.319,260.988 163.153,254.488 164.5,248C 163.282,246.562 162.615,244.895 162.5,243C 166.376,238.296 170.376,233.796 174.5,229.5C 178.401,231.473 181.068,230.306 182.5,226C 181.685,222.52 180.018,219.52 177.5,217C 178.056,216.617 178.389,216.117 178.5,215.5C 178.5,215.167 178.5,214.833 178.5,214.5C 180.713,213.227 183.046,212.227 185.5,211.5 Z"/></g>
<g><path style="opacity:1" fill="#3a1416" d="M 187.5,208.5 C 189.524,210.107 191.857,211.274 194.5,212C 196.16,213.488 197.16,215.321 197.5,217.5C 194.984,221.098 191.651,222.431 187.5,221.5C 189.097,220.209 190.43,218.709 191.5,217C 190.767,215.234 190.433,213.401 190.5,211.5C 188.833,211.5 187.167,211.5 185.5,211.5C 186.551,210.778 187.218,209.778 187.5,208.5 Z"/></g>
<g><path style="opacity:1" fill="#962316" d="M 257.5,224.5 C 253.535,226.818 249.535,229.152 245.5,231.5C 238.876,227.022 231.876,223.355 224.5,220.5C 234.604,215.364 244.771,210.364 255,205.5C 256.23,206.275 256.563,207.275 256,208.5C 252.133,213.068 248.633,217.901 245.5,223C 249.297,224.424 253.297,224.924 257.5,224.5 Z"/></g>
<g><path style="opacity:1" fill="#371315" d="M 178.5,215.5 C 178.389,216.117 178.056,216.617 177.5,217C 180.018,219.52 181.685,222.52 182.5,226C 181.068,230.306 178.401,231.473 174.5,229.5C 174.276,227.213 173.609,225.047 172.5,223C 173.787,220.929 174.953,218.762 176,216.5C 176.671,215.748 177.504,215.414 178.5,215.5 Z"/></g>
<g><path style="opacity:1" fill="#791910" d="M 249.5,234.5 C 247.77,233.974 246.436,232.974 245.5,231.5C 249.535,229.152 253.535,226.818 257.5,224.5C 259.228,222.774 261.228,221.441 263.5,220.5C 265.722,220.822 267.556,220.155 269,218.5C 266.663,228.654 260.163,233.987 249.5,234.5 Z"/></g>
<g><path style="opacity:1" fill="#932115" d="M 292.5,223.5 C 286.402,222.883 280.735,223.55 275.5,225.5C 274.167,226.167 273.167,227.167 272.5,228.5C 270.577,232.029 269.911,236.029 270.5,240.5C 269.209,240.263 268.209,240.596 267.5,241.5C 263.927,241.891 260.593,242.891 257.5,244.5C 255.213,240.878 252.547,237.545 249.5,234.5C 260.163,233.987 266.663,228.654 269,218.5C 267.556,220.155 265.722,220.822 263.5,220.5C 266.529,217.141 269.529,213.808 272.5,210.5C 272.343,211.873 272.51,213.207 273,214.5C 274.796,213.233 276.629,213.233 278.5,214.5C 279.167,216.5 279.833,218.5 280.5,220.5C 280.088,210.814 282.255,201.814 287,193.5C 287.733,199.826 288.399,206.16 289,212.5C 289.409,216.491 290.576,220.157 292.5,223.5 Z"/></g>
<g><path style="opacity:1" fill="#441811" d="M 292.5,223.5 C 294.167,223.5 295.833,223.5 297.5,223.5C 303.833,223.5 310.167,223.5 316.5,223.5C 325.167,223.5 333.833,223.5 342.5,223.5C 350.684,223.174 358.684,223.508 366.5,224.5C 336.093,224.175 305.76,224.508 275.5,225.5C 280.735,223.55 286.402,222.883 292.5,223.5 Z"/></g>
<g><path style="opacity:1" fill="#492431" d="M 482.5,223.5 C 487.894,226.187 489.894,230.521 488.5,236.5C 493.855,235.345 498.022,237.012 501,241.5C 502.343,276.158 502.676,310.825 502,345.5C 501.044,346.579 500.211,347.745 499.5,349C 486.514,350.151 473.514,350.484 460.5,350C 458.859,348.871 457.859,347.371 457.5,345.5C 456.559,340.93 456.226,336.263 456.5,331.5C 457.495,319.345 457.829,307.011 457.5,294.5C 449.5,294.5 441.5,294.5 433.5,294.5C 432.7,311.821 432.367,329.154 432.5,346.5C 431.5,346.833 430.833,347.5 430.5,348.5C 417.421,348.814 404.421,348.48 391.5,347.5C 390.21,346.942 389.377,345.942 389,344.5C 388.502,341.518 388.335,338.518 388.5,335.5C 388.5,299.833 388.5,264.167 388.5,228.5C 389.5,226.833 390.833,225.5 392.5,224.5C 422.426,223.508 452.426,223.175 482.5,223.5 Z"/></g>
<g><path style="opacity:1" fill="#492431" d="M 129.5,224.5 C 134.024,226.197 135.691,229.531 134.5,234.5C 136.717,236.08 139.384,237.08 142.5,237.5C 143.867,238.84 145.2,240.173 146.5,241.5C 146.825,272.24 146.492,302.907 145.5,333.5C 142.859,337.154 139.192,338.488 134.5,337.5C 135.157,342.417 133.824,346.583 130.5,350C 99.5,350.667 68.5,350.667 37.5,350C 36.695,348.887 36.0283,347.721 35.5,346.5C 34.1667,307.167 34.1667,267.833 35.5,228.5C 36.1667,227.167 37.1667,226.167 38.5,225.5C 68.7598,224.508 99.0931,224.175 129.5,224.5 Z"/></g>
<g><path style="opacity:1" fill="#492432" d="M 366.5,224.5 C 369.621,225.288 371.288,227.288 371.5,230.5C 371.5,232.5 371.5,234.5 371.5,236.5C 376.661,235.77 380.661,237.437 383.5,241.5C 383.825,272.24 383.492,302.907 382.5,333.5C 379.859,337.154 376.192,338.488 371.5,337.5C 371.817,340.572 371.484,343.572 370.5,346.5C 369.817,346.863 369.15,347.196 368.5,347.5C 337.39,349.481 306.057,350.147 274.5,349.5C 273.599,348.71 272.932,347.71 272.5,346.5C 271.167,307.167 271.167,267.833 272.5,228.5C 273.167,227.167 274.167,226.167 275.5,225.5C 305.76,224.508 336.093,224.175 366.5,224.5 Z"/></g>
<g><path style="opacity:1" fill="#fefefe" d="M 209.5,225.5 C 215.298,226.699 220.964,228.532 226.5,231C 229.917,235.564 228.917,238.064 223.5,238.5C 219.787,238.091 216.12,237.424 212.5,236.5C 207.831,237.723 203.164,237.723 198.5,236.5C 197.572,235.232 197.405,233.899 198,232.5C 201.814,230.016 205.647,227.682 209.5,225.5 Z"/></g>
<g><path style="opacity:1" fill="#441811" d="M 35.5,228.5 C 34.1667,267.833 34.1667,307.167 35.5,346.5C 34.167,327.178 33.5003,307.512 33.5,287.5C 33.5003,267.488 34.167,247.822 35.5,228.5 Z"/></g>
<g><path style="opacity:1" fill="#471a14" d="M 272.5,228.5 C 271.167,267.833 271.167,307.167 272.5,346.5C 270.676,326.858 269.843,306.858 270,286.5C 266.972,312.182 253.472,329.682 229.5,339C 205.418,346.604 184.085,342.438 165.5,326.5C 164.127,326.657 162.793,326.49 161.5,326C 160.187,323.674 158.187,322.341 155.5,322C 153.963,320.89 153.297,319.39 153.5,317.5C 151.097,317.607 149.264,316.607 148,314.5C 148.131,321.246 147.298,327.579 145.5,333.5C 146.492,302.907 146.825,272.24 146.5,241.5C 147.167,250.167 147.833,258.833 148.5,267.5C 146.758,278.685 147.591,289.685 151,300.5C 151.608,302.066 152.442,303.4 153.5,304.5C 151.339,306.42 150.006,308.92 149.5,312C 150.429,314.909 152.429,316.075 155.5,315.5C 154.737,319.138 156.07,320.638 159.5,320C 160.191,318.933 160.691,317.766 161,316.5C 162.374,318.824 162.707,321.157 162,323.5C 164.044,324.772 165.878,324.439 167.5,322.5C 167.426,324.312 167.759,326.312 168.5,328.5C 169.865,327.193 171.198,327.193 172.5,328.5C 191.48,341.805 211.813,343.971 233.5,335C 255.945,323.548 266.945,305.715 266.5,281.5C 266.631,279.048 267.797,276.715 270,274.5C 270.5,263.505 270.667,252.505 270.5,241.5C 269.5,241.5 268.5,241.5 267.5,241.5C 268.209,240.596 269.209,240.263 270.5,240.5C 269.911,236.029 270.577,232.029 272.5,228.5 Z"/></g>
<g><path style="opacity:1" fill="#441811" d="M 409.5,233.5 C 432.994,232.502 456.661,232.169 480.5,232.5C 480.5,234.5 480.5,236.5 480.5,238.5C 479.549,237.081 479.216,235.415 479.5,233.5C 456.167,233.5 432.833,233.5 409.5,233.5 Z"/></g>
<g><path style="opacity:1" fill="#441811" d="M 409.5,233.5 C 405.702,234.483 401.702,234.817 397.5,234.5C 397.5,269.833 397.5,305.167 397.5,340.5C 406.5,340.5 415.5,340.5 424.5,340.5C 424.5,322.5 424.5,304.5 424.5,286.5C 438.01,286.171 451.344,286.504 464.5,287.5C 451.5,287.5 438.5,287.5 425.5,287.5C 425.667,305.836 425.5,324.17 425,342.5C 415.583,341.515 406.083,341.182 396.5,341.5C 396.5,305.5 396.5,269.5 396.5,233.5C 400.833,233.5 405.167,233.5 409.5,233.5 Z"/></g>
<g><path style="opacity:1" fill="#f6b66a" d="M 409.5,233.5 C 432.833,233.5 456.167,233.5 479.5,233.5C 479.216,235.415 479.549,237.081 480.5,238.5C 480.5,241.167 480.5,243.833 480.5,246.5C 484.167,246.5 487.833,246.5 491.5,246.5C 491.205,248.735 491.539,250.735 492.5,252.5C 492.5,259.5 492.5,266.5 492.5,273.5C 488.298,273.183 484.298,273.517 480.5,274.5C 479.838,276.304 479.505,278.304 479.5,280.5C 479.539,282.952 480.206,284.952 481.5,286.5C 485.298,287.483 489.298,287.817 493.5,287.5C 493.5,305.5 493.5,323.5 493.5,341.5C 484.167,341.5 474.833,341.5 465.5,341.5C 465.83,323.326 465.497,305.326 464.5,287.5C 451.344,286.504 438.01,286.171 424.5,286.5C 424.5,304.5 424.5,322.5 424.5,340.5C 415.5,340.5 406.5,340.5 397.5,340.5C 397.5,305.167 397.5,269.833 397.5,234.5C 401.702,234.817 405.702,234.483 409.5,233.5 Z"/></g>
<g><path style="opacity:1" fill="#451812" d="M 127.5,244.5 C 131.5,244.5 135.5,244.5 139.5,244.5C 139.5,254.833 139.5,265.167 139.5,275.5C 134.833,275.5 130.167,275.5 125.5,275.5C 125.5,279.167 125.5,282.833 125.5,286.5C 129.833,286.5 134.167,286.5 138.5,286.5C 138.5,300.833 138.5,315.167 138.5,329.5C 133.833,329.5 129.167,329.5 124.5,329.5C 124.5,333.5 124.5,337.5 124.5,341.5C 97.5,341.5 70.5,341.5 43.5,341.5C 43.5,305.5 43.5,269.5 43.5,233.5C 70.8333,233.5 98.1667,233.5 125.5,233.5C 125.036,237.502 125.702,241.169 127.5,244.5 Z"/></g>
<g><path style="opacity:1" fill="#f6b66a" d="M 127.5,244.5 C 130.962,245.482 134.629,245.815 138.5,245.5C 138.5,255.167 138.5,264.833 138.5,274.5C 133.833,274.5 129.167,274.5 124.5,274.5C 124.5,278.833 124.5,283.167 124.5,287.5C 128.833,287.5 133.167,287.5 137.5,287.5C 137.5,301.167 137.5,314.833 137.5,328.5C 132.833,328.5 128.167,328.5 123.5,328.5C 123.5,332.5 123.5,336.5 123.5,340.5C 97.1667,340.5 70.8333,340.5 44.5,340.5C 44.5,305.167 44.5,269.833 44.5,234.5C 71.1667,234.5 97.8333,234.5 124.5,234.5C 124.5,237.833 124.5,241.167 124.5,244.5C 125.5,244.5 126.5,244.5 127.5,244.5 Z"/></g>
<g><path style="opacity:1" fill="#451812" d="M 364.5,244.5 C 368.5,244.5 372.5,244.5 376.5,244.5C 376.5,254.833 376.5,265.167 376.5,275.5C 371.833,275.5 367.167,275.5 362.5,275.5C 362.5,279.167 362.5,282.833 362.5,286.5C 366.833,286.5 371.167,286.5 375.5,286.5C 375.5,300.833 375.5,315.167 375.5,329.5C 370.833,329.5 366.167,329.5 361.5,329.5C 361.5,333.5 361.5,337.5 361.5,341.5C 334.5,341.5 307.5,341.5 280.5,341.5C 280.5,305.5 280.5,269.5 280.5,233.5C 307.833,233.5 335.167,233.5 362.5,233.5C 362.036,237.502 362.702,241.169 364.5,244.5 Z"/></g>
<g><path style="opacity:1" fill="#f6b66a" d="M 364.5,244.5 C 367.962,245.482 371.629,245.815 375.5,245.5C 375.5,255.167 375.5,264.833 375.5,274.5C 370.833,274.5 366.167,274.5 361.5,274.5C 361.5,278.833 361.5,283.167 361.5,287.5C 365.833,287.5 370.167,287.5 374.5,287.5C 374.5,301.167 374.5,314.833 374.5,328.5C 369.833,328.5 365.167,328.5 360.5,328.5C 360.5,332.5 360.5,336.5 360.5,340.5C 334.167,340.5 307.833,340.5 281.5,340.5C 281.5,305.167 281.5,269.833 281.5,234.5C 308.167,234.5 334.833,234.5 361.5,234.5C 361.5,237.833 361.5,241.167 361.5,244.5C 362.5,244.5 363.5,244.5 364.5,244.5 Z"/></g>
<g><path style="opacity:1" fill="#fefffe" d="M 237.5,239.5 C 242.493,239.997 243.493,242.164 240.5,246C 235.382,245.824 234.382,243.658 237.5,239.5 Z"/></g>
<g><path style="opacity:1" fill="#754931" d="M 267.5,241.5 C 268.5,241.5 269.5,241.5 270.5,241.5C 270.667,252.505 270.5,263.505 270,274.5C 267.797,276.715 266.631,279.048 266.5,281.5C 264.999,280.557 263.665,280.891 262.5,282.5C 261.25,282.423 260.417,281.756 260,280.5C 259.492,282.904 258.325,283.571 256.5,282.5C 258.36,275.419 260.527,268.419 263,261.5C 263.498,258.183 263.665,254.85 263.5,251.5C 262.209,251.263 261.209,251.596 260.5,252.5C 255.978,254.264 251.645,256.264 247.5,258.5C 246.475,258.103 246.308,257.437 247,256.5C 251.198,252.822 254.698,248.822 257.5,244.5C 260.593,242.891 263.927,241.891 267.5,241.5 Z"/></g>
<g><path style="opacity:1" fill="#361316" d="M 174.5,229.5 C 170.376,233.796 166.376,238.296 162.5,243C 162.615,244.895 163.282,246.562 164.5,248C 163.153,254.488 163.319,260.988 165,267.5C 168.394,275.288 172.061,282.955 176,290.5C 181.061,295.939 186.894,300.273 193.5,303.5C 185.11,305.245 176.777,307.245 168.5,309.5C 166.871,310.625 165.371,311.959 164,313.5C 163.667,311.167 163.333,308.833 163,306.5C 160.626,308.539 158.626,310.872 157,313.5C 155.56,312.07 155.226,310.403 156,308.5C 157.371,304.927 158.871,301.427 160.5,298C 157.135,298.858 154.802,301.025 153.5,304.5C 152.442,303.4 151.608,302.066 151,300.5C 147.591,289.685 146.758,278.685 148.5,267.5C 151.74,250.99 160.407,238.323 174.5,229.5 Z"/></g>
<g><path style="opacity:1" fill="#441811" d="M 70.5,246.5 C 84.1667,246.5 97.8333,246.5 111.5,246.5C 111.5,255.167 111.5,263.833 111.5,272.5C 97.8333,272.5 84.1667,272.5 70.5,272.5C 70.5,263.833 70.5,255.167 70.5,246.5 Z"/></g>
<g><path style="opacity:1" fill="#441811" d="M 307.5,246.5 C 321.167,246.5 334.833,246.5 348.5,246.5C 348.5,255.167 348.5,263.833 348.5,272.5C 334.833,272.5 321.167,272.5 307.5,272.5C 307.5,263.833 307.5,255.167 307.5,246.5 Z"/></g>
<g><path style="opacity:1" fill="#492431" d="M 71.5,247.5 C 84.5,247.5 97.5,247.5 110.5,247.5C 110.5,255.5 110.5,263.5 110.5,271.5C 97.5,271.5 84.5,271.5 71.5,271.5C 71.5,263.5 71.5,255.5 71.5,247.5 Z"/></g>
<g><path style="opacity:1" fill="#492431" d="M 308.5,247.5 C 321.5,247.5 334.5,247.5 347.5,247.5C 347.5,255.5 347.5,263.5 347.5,271.5C 334.5,271.5 321.5,271.5 308.5,271.5C 308.5,263.5 308.5,255.5 308.5,247.5 Z"/></g>
<g><path style="opacity:1" fill="#441811" d="M 492.5,252.5 C 493.492,259.648 493.825,266.981 493.5,274.5C 489.167,274.5 484.833,274.5 480.5,274.5C 484.298,273.517 488.298,273.183 492.5,273.5C 492.5,266.5 492.5,259.5 492.5,252.5 Z"/></g>
<g><path style="opacity:1" fill="#3a1516" d="M 260.5,252.5 C 260.657,253.873 260.49,255.207 260,256.5C 257.43,258.869 254.596,260.869 251.5,262.5C 249.603,261.632 248.27,260.299 247.5,258.5C 251.645,256.264 255.978,254.264 260.5,252.5 Z"/></g>
<g><path style="opacity:1" fill="#441811" d="M 102.5,263.5 C 102.5,261.167 102.5,258.833 102.5,256.5C 94.8333,256.5 87.1667,256.5 79.5,256.5C 79.5,258.833 79.5,261.167 79.5,263.5C 78.5269,261.052 78.1936,258.385 78.5,255.5C 86.8333,255.5 95.1667,255.5 103.5,255.5C 103.806,258.385 103.473,261.052 102.5,263.5 Z"/></g>
<g><path style="opacity:1" fill="#441811" d="M 339.5,263.5 C 339.5,261.167 339.5,258.833 339.5,256.5C 331.833,256.5 324.167,256.5 316.5,256.5C 316.5,258.833 316.5,261.167 316.5,263.5C 315.527,261.052 315.194,258.385 315.5,255.5C 323.833,255.5 332.167,255.5 340.5,255.5C 340.806,258.385 340.473,261.052 339.5,263.5 Z"/></g>
<g><path style="opacity:1" fill="#efe1db" d="M 102.5,263.5 C 94.8333,263.5 87.1667,263.5 79.5,263.5C 79.5,261.167 79.5,258.833 79.5,256.5C 87.1667,256.5 94.8333,256.5 102.5,256.5C 102.5,258.833 102.5,261.167 102.5,263.5 Z"/></g>
<g><path style="opacity:1" fill="#b47251" d="M 339.5,263.5 C 331.833,263.5 324.167,263.5 316.5,263.5C 316.5,261.167 316.5,258.833 316.5,256.5C 324.167,256.5 331.833,256.5 339.5,256.5C 339.5,258.833 339.5,261.167 339.5,263.5 Z"/></g>
<g><path style="opacity:1" fill="#451812" d="M 425.5,247.5 C 438.5,247.5 451.5,247.5 464.5,247.5C 464.5,255.833 464.5,264.167 464.5,272.5C 451.5,272.5 438.5,272.5 425.5,272.5C 425.5,264.167 425.5,255.833 425.5,247.5 Z"/></g>
<g><path style="opacity:1" fill="#4a2532" d="M 426.5,248.5 C 438.833,248.5 451.167,248.5 463.5,248.5C 463.5,256.167 463.5,263.833 463.5,271.5C 451.167,271.5 438.833,271.5 426.5,271.5C 426.5,263.833 426.5,256.167 426.5,248.5 Z"/></g>
<g><path style="opacity:1" fill="#441811" d="M 455.5,253.5 C 456.482,256.962 456.815,260.629 456.5,264.5C 448.833,264.5 441.167,264.5 433.5,264.5C 433.5,261.167 433.5,257.833 433.5,254.5C 441.019,254.825 448.352,254.492 455.5,253.5 Z"/></g>
<g><path style="opacity:1" fill="#772918" d="M 434.5,255.5 C 441.5,255.5 448.5,255.5 455.5,255.5C 455.5,258.167 455.5,260.833 455.5,263.5C 448.5,263.5 441.5,263.5 434.5,263.5C 434.5,260.833 434.5,258.167 434.5,255.5 Z"/></g>
<g><path style="opacity:1" fill="#441811" d="M 481.5,286.5 C 485.833,286.5 490.167,286.5 494.5,286.5C 494.5,305.167 494.5,323.833 494.5,342.5C 484.5,342.5 474.5,342.5 464.5,342.5C 464.5,324.167 464.5,305.833 464.5,287.5C 465.497,305.326 465.83,323.326 465.5,341.5C 474.833,341.5 484.167,341.5 493.5,341.5C 493.5,323.5 493.5,305.5 493.5,287.5C 489.298,287.817 485.298,287.483 481.5,286.5 Z"/></g>
<g><path style="opacity:1" fill="#451812" d="M 70.5,286.5 C 84.1667,286.5 97.8333,286.5 111.5,286.5C 111.5,300.167 111.5,313.833 111.5,327.5C 97.8333,327.5 84.1667,327.5 70.5,327.5C 70.5,313.833 70.5,300.167 70.5,286.5 Z"/></g>
<g><path style="opacity:1" fill="#4a2432" d="M 71.5,287.5 C 84.5,287.5 97.5,287.5 110.5,287.5C 110.5,300.5 110.5,313.5 110.5,326.5C 97.5,326.5 84.5,326.5 71.5,326.5C 71.5,313.5 71.5,300.5 71.5,287.5 Z"/></g>
<g><path style="opacity:1" fill="#451812" d="M 307.5,286.5 C 321.167,286.5 334.833,286.5 348.5,286.5C 348.5,300.167 348.5,313.833 348.5,327.5C 334.833,327.5 321.167,327.5 307.5,327.5C 307.5,313.833 307.5,300.167 307.5,286.5 Z"/></g>
<g><path style="opacity:1" fill="#4a2432" d="M 308.5,287.5 C 321.5,287.5 334.5,287.5 347.5,287.5C 347.5,300.5 347.5,313.5 347.5,326.5C 334.5,326.5 321.5,326.5 308.5,326.5C 308.5,313.5 308.5,300.5 308.5,287.5 Z"/></g>
<g><path style="opacity:1" fill="#46160d" d="M 456.5,331.5 C 456.5,319.5 456.5,307.5 456.5,295.5C 454.473,295.338 452.473,295.505 450.5,296C 446.773,301.735 442.273,306.902 437,311.5C 433.81,316.658 432.643,322.325 433.5,328.5C 433.823,334.69 433.49,340.69 432.5,346.5C 432.367,329.154 432.7,311.821 433.5,294.5C 441.5,294.5 449.5,294.5 457.5,294.5C 457.829,307.011 457.495,319.345 456.5,331.5 Z"/></g>
<g><path style="opacity:1" fill="#451812" d="M 94.5,297.5 C 89.5,297.5 84.5,297.5 79.5,297.5C 79.5,304.833 79.5,312.167 79.5,319.5C 87.1667,319.5 94.8333,319.5 102.5,319.5C 102.5,312.167 102.5,304.833 102.5,297.5C 103.492,304.982 103.825,312.648 103.5,320.5C 95.1667,320.5 86.8333,320.5 78.5,320.5C 78.5,312.5 78.5,304.5 78.5,296.5C 84.0262,296.179 89.3595,296.512 94.5,297.5 Z"/></g>
<g><path style="opacity:1" fill="#451812" d="M 331.5,297.5 C 326.5,297.5 321.5,297.5 316.5,297.5C 316.5,304.833 316.5,312.167 316.5,319.5C 324.167,319.5 331.833,319.5 339.5,319.5C 339.5,312.167 339.5,304.833 339.5,297.5C 340.492,304.982 340.825,312.648 340.5,320.5C 332.167,320.5 323.833,320.5 315.5,320.5C 315.5,312.5 315.5,304.5 315.5,296.5C 321.026,296.179 326.36,296.512 331.5,297.5 Z"/></g>
<g><path style="opacity:1" fill="#efe1db" d="M 94.5,297.5 C 97.1667,297.5 99.8333,297.5 102.5,297.5C 102.5,304.833 102.5,312.167 102.5,319.5C 94.8333,319.5 87.1667,319.5 79.5,319.5C 79.5,312.167 79.5,304.833 79.5,297.5C 84.5,297.5 89.5,297.5 94.5,297.5 Z"/></g>
<g><path style="opacity:1" fill="#efe0db" d="M 331.5,297.5 C 334.167,297.5 336.833,297.5 339.5,297.5C 339.5,304.833 339.5,312.167 339.5,319.5C 331.833,319.5 324.167,319.5 316.5,319.5C 316.5,312.167 316.5,304.833 316.5,297.5C 321.5,297.5 326.5,297.5 331.5,297.5 Z"/></g>
<g><path style="opacity:1" fill="#eeded9" d="M 368.5,347.5 C 369.15,347.196 369.817,346.863 370.5,346.5C 371.484,343.572 371.817,340.572 371.5,337.5C 376.192,338.488 379.859,337.154 382.5,333.5C 384.48,321.545 385.146,309.212 384.5,296.5C 385.5,296.5 386.5,296.5 387.5,296.5C 387.667,308.838 387.5,321.171 387,333.5C 381.595,339.576 375.595,344.909 369,349.5C 368.536,348.906 368.369,348.239 368.5,347.5 Z"/></g>
<g><path style="opacity:1" fill="#dcc9c4" d="M 147.5,297.5 C 148.339,299.781 149.339,302.115 150.5,304.5C 149.469,305.7 148.635,307.034 148,308.5C 147.501,304.848 147.335,301.182 147.5,297.5 Z"/></g>
<g><path style="opacity:1" fill="#5c2d1b" d="M 456.5,331.5 C 455.734,336.363 455.068,341.363 454.5,346.5C 448.708,339.038 441.708,333.038 433.5,328.5C 432.643,322.325 433.81,316.658 437,311.5C 442.273,306.902 446.773,301.735 450.5,296C 452.473,295.505 454.473,295.338 456.5,295.5C 456.5,307.5 456.5,319.5 456.5,331.5 Z"/></g>
<g><path style="opacity:1" fill="#572818" d="M 168.5,309.5 C 169.117,309.611 169.617,309.944 170,310.5C 170.182,313.226 170.682,315.893 171.5,318.5C 173.937,315.563 175.603,315.896 176.5,319.5C 175.93,322.892 174.596,325.892 172.5,328.5C 171.198,327.193 169.865,327.193 168.5,328.5C 167.759,326.312 167.426,324.312 167.5,322.5C 165.878,324.439 164.044,324.772 162,323.5C 162.707,321.157 162.374,318.824 161,316.5C 160.691,317.766 160.191,318.933 159.5,320C 156.07,320.638 154.737,319.138 155.5,315.5C 152.429,316.075 150.429,314.909 149.5,312C 150.006,308.92 151.339,306.42 153.5,304.5C 154.802,301.025 157.135,298.858 160.5,298C 158.871,301.427 157.371,304.927 156,308.5C 155.226,310.403 155.56,312.07 157,313.5C 158.626,310.872 160.626,308.539 163,306.5C 163.333,308.833 163.667,311.167 164,313.5C 165.371,311.959 166.871,310.625 168.5,309.5 Z"/></g>
<g><path style="opacity:1" fill="#3a161c" d="M 266.5,281.5 C 266.945,305.715 255.945,323.548 233.5,335C 211.813,343.971 191.48,341.805 172.5,328.5C 174.596,325.892 175.93,322.892 176.5,319.5C 175.603,315.896 173.937,315.563 171.5,318.5C 170.682,315.893 170.182,313.226 170,310.5C 169.617,309.944 169.117,309.611 168.5,309.5C 176.777,307.245 185.11,305.245 193.5,303.5C 197.145,304.987 200.812,306.487 204.5,308C 219.988,309.192 235.321,308.192 250.5,305C 257.951,300.206 262.118,293.373 263,284.5C 267.705,283.118 267.539,282.451 262.5,282.5C 263.665,280.891 264.999,280.557 266.5,281.5 Z"/></g>
<g><path style="opacity:1" fill="#471b15" d="M 388.5,228.5 C 388.5,264.167 388.5,299.833 388.5,335.5C 382.909,340.917 377.075,346.25 371,351.5C 370.586,351.043 370.086,350.709 369.5,350.5C 367.167,352 364.833,353.5 362.5,355C 363.167,355.333 363.833,355.667 364.5,356C 345.446,365.343 325.28,369.177 304,367.5C 285.705,367.432 267.538,365.932 249.5,363C 235.365,358.55 221.032,354.883 206.5,352C 167.356,348.075 137.356,362.575 116.5,395.5C 112.118,399.75 109.118,404.916 107.5,411C 108.762,415.126 110.595,418.96 113,422.5C 124.676,437.585 138.843,449.752 155.5,459C 175.638,470.433 196.972,478.599 219.5,483.5C 225.434,484.963 231.601,485.63 238,485.5C 284.039,483.866 328.539,474.699 371.5,458C 380.485,453.842 389.152,449.175 397.5,444C 405.363,435.802 413.53,427.969 422,420.5C 422.662,419.016 423.496,417.683 424.5,416.5C 430.899,408.724 436.066,400.057 440,390.5C 445.344,375.967 450.178,361.3 454.5,346.5C 455.068,341.363 455.734,336.363 456.5,331.5C 456.226,336.263 456.559,340.93 457.5,345.5C 453.139,359.084 448.639,372.751 444,386.5C 438.111,400.621 430.444,413.621 421,425.5C 412.901,431.595 405.401,438.428 398.5,446C 376.783,459.242 353.45,468.575 328.5,474C 298.947,482.617 268.78,487.451 238,488.5C 217.129,487.324 197.296,482.157 178.5,473C 159.338,464.595 141.671,453.929 125.5,441C 120.71,434.541 115.543,428.374 110,422.5C 107.148,417.828 105.814,412.828 106,407.5C 130.922,359.454 169.755,341.288 222.5,353C 248.379,362.054 275.046,366.221 302.5,365.5C 314.524,364.999 326.524,364.165 338.5,363C 348.692,361.398 357.692,357.398 365.5,351C 334.997,350.832 304.664,350.332 274.5,349.5C 306.057,350.147 337.39,349.481 368.5,347.5C 368.369,348.239 368.536,348.906 369,349.5C 375.595,344.909 381.595,339.576 387,333.5C 387.5,321.171 387.667,308.838 387.5,296.5C 386.5,296.5 385.5,296.5 384.5,296.5C 385.146,309.212 384.48,321.545 382.5,333.5C 383.492,302.907 383.825,272.24 383.5,241.5C 384.494,251.987 384.828,262.654 384.5,273.5C 384.334,280.508 384.5,287.508 385,294.5C 385.414,294.043 385.914,293.709 386.5,293.5C 387.496,287.537 387.829,281.537 387.5,275.5C 387.17,259.658 387.504,243.991 388.5,228.5 Z"/></g>
<g><path style="opacity:1" fill="#7a2c1b" d="M 384.5,273.5 C 385.5,274.167 386.5,274.833 387.5,275.5C 387.829,281.537 387.496,287.537 386.5,293.5C 385.914,293.709 385.414,294.043 385,294.5C 384.5,287.508 384.334,280.508 384.5,273.5 Z"/></g>
<g><path style="opacity:1" fill="#774b33" d="M 388.5,335.5 C 388.335,338.518 388.502,341.518 389,344.5C 389.377,345.942 390.21,346.942 391.5,347.5C 399.097,349.467 407.097,350.134 415.5,349.5C 414.343,353.793 413.343,358.127 412.5,362.5C 407.056,379.658 400.889,396.658 394,413.5C 386.921,422.415 378.754,430.082 369.5,436.5C 369.304,419.248 369.304,402.082 369.5,385C 363.843,384.501 358.176,384.334 352.5,384.5C 352.5,393.833 352.5,403.167 352.5,412.5C 351.167,412.5 349.833,412.5 348.5,412.5C 348.5,410.167 348.5,407.833 348.5,405.5C 346.167,405.5 343.833,405.5 341.5,405.5C 341.5,403.167 341.5,400.833 341.5,398.5C 339.167,398.5 336.833,398.5 334.5,398.5C 334.5,396.167 334.5,393.833 334.5,391.5C 332.167,391.5 329.833,391.5 327.5,391.5C 327.5,388.833 327.5,386.167 327.5,383.5C 323.833,383.5 320.167,383.5 316.5,383.5C 317.409,403.821 318.075,424.155 318.5,444.5C 323.762,444.805 328.928,444.471 334,443.5C 334.687,434.144 334.521,424.811 333.5,415.5C 335.5,415.5 337.5,415.5 339.5,415.5C 339.5,418.167 339.5,420.833 339.5,423.5C 341.467,423.739 343.301,423.406 345,422.5C 345.226,425.095 345.726,427.595 346.5,430C 349.146,430.497 351.813,430.664 354.5,430.5C 354.5,432.5 354.5,434.5 354.5,436.5C 356.5,436.833 358.5,437.167 360.5,437.5C 360.5,439.167 360.5,440.833 360.5,442.5C 339.037,453.435 316.37,461.435 292.5,466.5C 255.608,467.355 219.942,461.188 185.5,448C 176.097,444.257 166.764,440.424 157.5,436.5C 145.548,431.193 134.215,424.859 123.5,417.5C 119.164,410.826 116.831,403.492 116.5,395.5C 137.356,362.575 167.356,348.075 206.5,352C 221.032,354.883 235.365,358.55 249.5,363C 267.538,365.932 285.705,367.432 304,367.5C 325.28,369.177 345.446,365.343 364.5,356C 363.833,355.667 363.167,355.333 362.5,355C 364.833,353.5 367.167,352 369.5,350.5C 370.086,350.709 370.586,351.043 371,351.5C 377.075,346.25 382.909,340.917 388.5,335.5 Z"/></g>
<g><path style="opacity:1" fill="#441811" d="M 391.5,347.5 C 404.421,348.48 417.421,348.814 430.5,348.5C 425.695,349.487 420.695,349.821 415.5,349.5C 407.097,350.134 399.097,349.467 391.5,347.5 Z"/></g>
<g><path style="opacity:1" fill="#673925" d="M 433.5,328.5 C 441.708,333.038 448.708,339.038 454.5,346.5C 450.178,361.3 445.344,375.967 440,390.5C 436.066,400.057 430.899,408.724 424.5,416.5C 430.029,397.607 426.196,380.94 413,366.5C 412.51,365.207 412.343,363.873 412.5,362.5C 413.343,358.127 414.343,353.793 415.5,349.5C 420.695,349.821 425.695,349.487 430.5,348.5C 430.833,347.5 431.5,346.833 432.5,346.5C 433.49,340.69 433.823,334.69 433.5,328.5 Z"/></g>
<g><path style="opacity:1" fill="#6d402a" d="M 412.5,362.5 C 412.343,363.873 412.51,365.207 413,366.5C 426.196,380.94 430.029,397.607 424.5,416.5C 423.496,417.683 422.662,419.016 422,420.5C 413.53,427.969 405.363,435.802 397.5,444C 389.152,449.175 380.485,453.842 371.5,458C 328.539,474.699 284.039,483.866 238,485.5C 231.601,485.63 225.434,484.963 219.5,483.5C 201.003,478.668 184.503,470.001 170,457.5C 165.611,452.111 161.611,446.444 158,440.5C 157.51,439.207 157.343,437.873 157.5,436.5C 166.764,440.424 176.097,444.257 185.5,448C 219.942,461.188 255.608,467.355 292.5,466.5C 316.37,461.435 339.037,453.435 360.5,442.5C 366.782,445.198 369.782,443.198 369.5,436.5C 378.754,430.082 386.921,422.415 394,413.5C 400.889,396.658 407.056,379.658 412.5,362.5 Z"/></g>
<g><path style="opacity:1" fill="#f6b76a" d="M 194.5,382.5 C 197.482,382.963 200.482,383.296 203.5,383.5C 203.5,385.833 203.5,388.167 203.5,390.5C 206.187,390.336 208.854,390.503 211.5,391C 210.577,393.041 210.244,395.208 210.5,397.5C 213.247,397.187 215.914,397.52 218.5,398.5C 216.539,403.433 218.206,405.767 223.5,405.5C 223.192,403.076 223.526,400.743 224.5,398.5C 226.409,399.348 228.409,399.682 230.5,399.5C 230.5,396.833 230.5,394.167 230.5,391.5C 232.861,391.326 235.194,390.993 237.5,390.5C 237.5,388.833 237.5,387.167 237.5,385.5C 240.455,384.841 243.455,384.508 246.5,384.5C 246.5,404.167 246.5,423.833 246.5,443.5C 240.833,443.5 235.167,443.5 229.5,443.5C 229.5,433.833 229.5,424.167 229.5,414.5C 227.833,414.5 226.167,414.5 224.5,414.5C 224.5,417.833 224.5,421.167 224.5,424.5C 221.5,424.5 218.5,424.5 215.5,424.5C 215.5,420.833 215.5,417.167 215.5,413.5C 214.167,413.5 212.833,413.5 211.5,413.5C 211.5,423.167 211.5,432.833 211.5,442.5C 205.833,442.5 200.167,442.5 194.5,442.5C 194.5,422.5 194.5,402.5 194.5,382.5 Z"/></g>
<g><path style="opacity:1" fill="#f6b66a" d="M 269.5,383.5 C 277.507,383.334 285.507,383.5 293.5,384C 294.444,386.719 294.777,389.552 294.5,392.5C 296.541,392.854 298.374,392.854 300,392.5C 300.495,394.473 300.662,396.473 300.5,398.5C 303.167,398.5 305.833,398.5 308.5,398.5C 308.5,413.167 308.5,427.833 308.5,442.5C 302.833,442.5 297.167,442.5 291.5,442.5C 291.227,435.496 290.894,428.496 290.5,421.5C 284.791,421.928 279.124,422.594 273.5,423.5C 272.503,430.134 272.17,436.8 272.5,443.5C 266.833,443.5 261.167,443.5 255.5,443.5C 255.5,428.167 255.5,412.833 255.5,397.5C 257.806,397.993 260.139,398.326 262.5,398.5C 262.5,396.167 262.5,393.833 262.5,391.5C 264.833,391.5 267.167,391.5 269.5,391.5C 269.5,388.833 269.5,386.167 269.5,383.5 Z"/></g>
<g><path style="opacity:1" fill="#f6b66a" d="M 369.5,436.5 C 369.782,443.198 366.782,445.198 360.5,442.5C 360.5,440.833 360.5,439.167 360.5,437.5C 358.5,437.167 356.5,436.833 354.5,436.5C 354.5,434.5 354.5,432.5 354.5,430.5C 351.813,430.664 349.146,430.497 346.5,430C 345.726,427.595 345.226,425.095 345,422.5C 343.301,423.406 341.467,423.739 339.5,423.5C 339.5,420.833 339.5,418.167 339.5,415.5C 337.5,415.5 335.5,415.5 333.5,415.5C 334.521,424.811 334.687,434.144 334,443.5C 328.928,444.471 323.762,444.805 318.5,444.5C 318.075,424.155 317.409,403.821 316.5,383.5C 320.167,383.5 323.833,383.5 327.5,383.5C 327.5,386.167 327.5,388.833 327.5,391.5C 329.833,391.5 332.167,391.5 334.5,391.5C 334.5,393.833 334.5,396.167 334.5,398.5C 336.833,398.5 339.167,398.5 341.5,398.5C 341.5,400.833 341.5,403.167 341.5,405.5C 343.833,405.5 346.167,405.5 348.5,405.5C 348.5,407.833 348.5,410.167 348.5,412.5C 349.833,412.5 351.167,412.5 352.5,412.5C 352.5,403.167 352.5,393.833 352.5,384.5C 358.176,384.334 363.843,384.501 369.5,385C 369.304,402.082 369.304,419.248 369.5,436.5 Z"/></g>
<g><path style="opacity:1" fill="#774c33" d="M 279.5,393.5 C 281.167,393.5 282.833,393.5 284.5,393.5C 284.5,395.833 284.5,398.167 284.5,400.5C 286.833,400.5 289.167,400.5 291.5,400.5C 291.5,404.5 291.5,408.5 291.5,412.5C 285.167,412.5 278.833,412.5 272.5,412.5C 271.633,408.465 271.633,404.465 272.5,400.5C 274.747,401.374 277.08,401.708 279.5,401.5C 279.5,398.833 279.5,396.167 279.5,393.5 Z"/></g>
<g><path style="opacity:1" fill="#673925" d="M 116.5,395.5 C 116.831,403.492 119.164,410.826 123.5,417.5C 134.215,424.859 145.548,431.193 157.5,436.5C 157.343,437.873 157.51,439.207 158,440.5C 161.611,446.444 165.611,452.111 170,457.5C 184.503,470.001 201.003,478.668 219.5,483.5C 196.972,478.599 175.638,470.433 155.5,459C 138.843,449.752 124.676,437.585 113,422.5C 110.595,418.96 108.762,415.126 107.5,411C 109.118,404.916 112.118,399.75 116.5,395.5 Z"/></g>
</svg>
